<?xml version="1.0" standalone="no"?>
<!DOCTYPE svg PUBLIC "-//W3C//DTD SVG 20010904//EN"
 "http://www.w3.org/TR/2001/REC-SVG-20010904/DTD/svg10.dtd">
<svg version="1.0" xmlns="http://www.w3.org/2000/svg"
 width="678.000000pt" height="198.000000pt" viewBox="0 0 678.000000 198.000000"
 preserveAspectRatio="xMidYMid meet">

<g transform="translate(0.000000,198.000000) scale(0.100000,-0.100000)"
fill="#000000" stroke="none">
<path d="M4024 1253 c-76 -190 -143 -346 -148 -347 -5 -1 -20 31 -33 69 -27
80 -29 68 42 244 25 63 42 117 38 121 -4 4 -33 16 -63 25 -30 10 -60 20 -66
22 -6 2 -19 -14 -28 -37 -18 -45 -31 -45 -41 0 -4 17 -12 30 -18 30 -28 0
-147 -54 -147 -67 0 -8 18 -70 41 -140 l41 -126 -32 -83 c-18 -46 -36 -84 -39
-84 -6 0 -37 91 -116 343 -26 81 -50 147 -55 147 -4 0 -33 -11 -64 -25 -31
-14 -59 -25 -61 -25 -3 0 -5 12 -5 26 l0 27 -127 -6 c-71 -4 -199 -10 -285
-13 l-158 -7 0 -36 c0 -20 -9 -191 -20 -381 -10 -189 -17 -346 -15 -348 4 -4
558 18 561 22 1 0 5 39 8 84 l8 84 -169 -6 c-92 -4 -183 -9 -201 -12 l-33 -5
3 68 3 68 149 7 c82 4 150 9 152 10 1 2 4 39 5 83 l2 80 -29 -1 c-16 -1 -83
-3 -149 -5 l-120 -3 4 64 c2 36 4 66 5 67 0 0 88 4 194 8 184 7 194 9 202 29
10 26 0 54 105 -289 104 -336 101 -329 121 -321 9 3 48 6 87 6 l72 0 35 85
c19 46 38 81 41 77 4 -4 16 -40 28 -79 l22 -73 72 1 c40 0 81 4 92 8 15 6 64
118 201 459 l181 452 -51 19 c-112 41 -84 76 -242 -316z"/>
<path d="M4346 1463 l-26 -53 58 28 c31 16 62 31 68 33 6 2 -9 13 -32 24 l-42
21 -26 -53z"/>
<path d="M6087 1312 l-198 -197 6 125 c3 69 8 153 11 188 l6 62 -86 0 -86 0 0
-28 c0 -47 -29 -591 -36 -670 l-6 -73 84 3 83 3 8 75 c7 68 11 78 43 110 l35
35 189 -195 189 -195 60 60 c34 33 61 64 61 70 0 5 -84 94 -187 197 l-186 186
41 49 c22 26 93 100 156 163 64 63 116 117 116 120 0 3 -24 29 -53 58 l-52 52
-198 -198z"/>
<path d="M5631 1471 l-33 -6 22 -20 c12 -11 30 -36 41 -55 l18 -35 1 63 c0 34
-3 61 -7 61 -5 -1 -23 -4 -42 -8z"/>
<path d="M5138 1461 c-70 -4 -130 -9 -132 -12 -4 -4 -47 -762 -43 -765 1 -1
39 1 83 4 l82 4 7 96 7 95 182 -182 181 -181 63 63 62 62 -119 126 -119 125
51 18 c72 26 160 112 187 183 51 137 3 285 -114 345 -47 25 -161 31 -378 19z
m316 -189 c36 -38 43 -87 18 -132 -31 -57 -63 -69 -200 -77 l-122 -6 0 49 c0
105 12 183 29 187 9 3 68 5 132 6 114 1 115 1 143 -27z"/>
<path d="M5258 1243 l-48 -4 0 -60 0 -59 81 0 c76 0 82 2 110 30 36 35 35 69
-1 87 -24 12 -46 13 -142 6z"/>
<path d="M3986 1431 c-45 -23 -48 -26 -28 -34 12 -5 25 -21 30 -35 7 -23 10
-21 30 33 12 32 21 58 20 59 -2 1 -25 -10 -52 -23z"/>
<path d="M4479 1416 c-185 -50 -324 -253 -304 -445 20 -200 202 -338 399 -302
218 40 373 239 352 451 -13 128 -83 226 -199 281 -51 24 -75 29 -132 28 -38 0
-91 -6 -116 -13z m166 -165 c78 -36 115 -95 115 -184 -1 -69 -27 -124 -83
-173 -72 -64 -148 -79 -222 -45 -78 36 -115 95 -115 182 0 60 17 103 60 153
68 77 166 104 245 67z"/>
<path d="M4524 1199 c-34 -10 -99 -75 -114 -115 -25 -66 -2 -136 56 -175 104
-69 270 74 228 196 -26 77 -96 115 -170 94z m94 -33 c82 -45 80 -175 -3 -226
-39 -24 -111 -26 -143 -4 -52 36 -67 115 -32 172 38 63 121 90 178 58z"/>
<path d="M4894 1416 l-40 -11 43 -59 43 -58 0 71 c0 39 -1 70 -2 70 -2 -1 -21
-7 -44 -13z"/>
<path d="M5956 1349 c-4 -44 -6 -82 -4 -84 2 -2 36 32 75 75 70 75 71 78 39
68 -27 -8 -41 -7 -66 6 -18 9 -34 16 -35 16 -1 0 -6 -36 -9 -81z"/>
<path d="M3471 1378 c0 -7 7 -29 14 -48 13 -34 14 -34 14 -7 1 15 10 36 21 47
l20 20 -35 0 c-22 0 -35 -5 -34 -12z"/>
<path d="M2600 1337 c0 -59 23 -243 31 -252 5 -5 9 34 9 102 0 61 3 125 6 142
6 28 4 31 -20 31 -21 0 -26 -5 -26 -23z"/>
<path d="M2419 1333 l-45 -4 -69 -134 c-37 -74 -71 -135 -75 -135 -6 0 -80
167 -102 233 l-11 29 -81 -7 c-44 -4 -83 -8 -85 -10 -2 -2 -9 -30 -16 -62 -23
-107 -64 -286 -109 -487 -25 -110 -45 -201 -43 -202 8 -8 152 -23 157 -17 4 4
17 53 30 108 12 55 33 146 46 202 13 57 24 111 24 120 0 10 4 24 8 31 6 8 34
-49 82 -163 40 -96 75 -177 79 -179 4 -3 47 78 96 180 50 101 93 184 96 184 3
0 11 -48 18 -107 6 -60 16 -137 21 -173 5 -36 17 -130 26 -210 10 -80 18 -146
19 -147 2 -4 156 34 161 40 4 3 -1 63 -10 134 -9 70 -21 166 -27 213 -6 47
-16 130 -24 185 -7 55 -19 143 -25 195 -24 214 -17 190 -58 188 -21 -1 -57 -3
-83 -5z"/>
<path d="M2193 1296 c3 -6 13 -34 23 -62 l18 -51 28 59 c15 33 28 61 28 63 0
1 -23 2 -50 2 -31 -1 -49 -5 -47 -11z"/>
<path d="M1368 1271 c-82 -27 -139 -63 -193 -123 -54 -60 -76 -100 -100 -183
-47 -163 31 -342 180 -416 43 -21 64 -24 150 -24 93 0 105 2 166 32 91 45 163
119 208 212 33 70 36 83 35 161 0 47 -6 103 -12 125 -24 82 -132 192 -210 215
-72 21 -163 21 -224 1z m169 -166 c48 -20 71 -41 95 -89 46 -89 4 -224 -90
-290 -35 -25 -55 -31 -110 -34 -56 -2 -74 1 -107 20 -105 61 -127 208 -47 312
66 87 168 119 259 81z"/>
<path d="M1395 1043 c-46 -24 -66 -45 -86 -88 -48 -104 12 -207 119 -207 73 0
167 102 164 179 -4 100 -110 162 -197 116z m125 -32 c77 -56 61 -177 -30 -224
-78 -40 -168 8 -177 94 -6 60 21 107 78 137 49 26 88 24 129 -7z"/>
<path d="M909 1263 l-46 -4 -6 -97 c-4 -53 -7 -120 -7 -148 l0 -51 -92 -7
c-50 -3 -126 -6 -169 -6 l-79 0 5 43 c2 23 7 89 9 147 l6 105 -84 -3 -83 -3
-7 -112 c-3 -62 -10 -200 -16 -307 -5 -107 -12 -230 -16 -273 l-5 -77 73 0
c40 0 79 4 86 9 9 5 15 50 19 150 3 78 9 143 12 145 3 2 79 7 168 11 l163 7
-5 -44 c-2 -23 -7 -92 -10 -152 l-5 -108 83 7 c45 4 83 8 85 10 1 1 9 137 17
301 8 164 17 336 20 382 l6 82 -38 -2 c-21 -1 -59 -3 -84 -5z"/>
<path d="M1080 1190 c0 -63 0 -64 16 -40 10 14 33 41 52 61 l34 37 -51 3 -51
4 0 -65z"/>
<path d="M1850 1250 c-8 -6 -30 -10 -47 -10 -36 0 -40 -6 -19 -29 8 -9 25 -38
39 -64 l24 -48 13 76 c7 41 11 77 9 80 -3 2 -11 0 -19 -5z"/>
<path d="M3511 1245 c0 -5 15 -57 34 -115 19 -58 32 -90 29 -72 -7 38 -62 202
-63 187z"/>
<path d="M3013 1143 c-85 -3 -103 -6 -103 -19 0 -14 17 -15 133 -9 171 9 167
12 167 -130 0 -104 -9 -133 -43 -136 -7 -1 -70 -4 -141 -8 -96 -4 -131 -10
-134 -20 -4 -11 21 -12 144 -7 82 4 165 9 185 12 55 8 69 -12 69 -99 l0 -72
49 0 48 0 -17 60 c-29 100 -67 226 -100 333 l-32 102 -61 -2 c-34 -1 -108 -4
-164 -5z"/>
<path d="M6197 1107 l-38 -32 40 -39 40 -39 -11 36 c-8 27 -8 47 -1 72 6 19
10 35 10 35 -1 0 -19 -15 -40 -33z"/>
<path d="M763 1070 c-27 -30 -38 -35 -78 -35 -40 0 -51 5 -75 32 l-29 32 -7
-45 c-3 -25 -5 -46 -3 -48 2 -2 52 -1 112 2 101 4 108 6 113 27 3 12 4 33 2
46 -3 23 -4 23 -35 -11z"/>
<path d="M5617 964 c-21 -24 -56 -54 -78 -67 -21 -12 -39 -24 -39 -27 0 -3 33
-38 74 -79 l74 -73 7 141 c4 78 6 144 4 146 -2 2 -21 -17 -42 -41z"/>
<path d="M4091 832 c-17 -45 -31 -84 -31 -87 0 -3 14 2 31 11 19 10 43 14 60
10 32 -6 34 -4 17 27 -6 12 -19 43 -28 70 l-18 49 -31 -80z"/>
<path d="M5937 854 c-4 -4 -7 -28 -7 -53 l0 -46 54 0 c45 0 53 3 46 15 -15 27
-86 91 -93 84z"/>
<path d="M4903 818 c-6 -13 -29 -43 -50 -68 l-40 -45 47 -2 48 -2 4 67 c3 37
4 68 3 70 -1 1 -6 -8 -12 -20z"/>
<path d="M2327 754 c-37 -80 -39 -94 -8 -94 10 0 31 -10 46 -22 l28 -22 -7 94
c-4 51 -10 100 -15 107 -5 9 -19 -11 -44 -63z"/>
<path d="M2066 810 c-7 -17 -36 -157 -36 -171 0 -5 13 -3 30 6 16 8 36 15 44
15 27 0 27 18 -3 92 -18 44 -31 67 -35 58z"/>
<path d="M5190 712 c0 -36 2 -38 44 -48 l45 -10 -41 48 c-22 26 -42 48 -44 48
-2 0 -4 -17 -4 -38z"/>
<path d="M668 732 c-106 -3 -108 -3 -108 -26 0 -13 -3 -39 -6 -57 l-6 -34 21
33 c44 68 135 75 180 14 l19 -27 7 26 c4 15 5 37 3 50 -3 24 -4 24 -110 21z"/>
<path d="M1050 596 c0 -71 1 -72 61 -57 l26 6 -44 59 -43 58 0 -66z"/>
<path d="M5690 650 c0 -5 4 -10 9 -10 6 0 13 5 16 10 3 6 -1 10 -9 10 -9 0
-16 -4 -16 -10z"/>
<path d="M3700 600 c0 -5 5 -10 10 -10 6 0 10 5 10 10 0 6 -4 10 -10 10 -5 0
-10 -4 -10 -10z"/>
<path d="M1690 560 l-34 -30 37 0 c34 0 37 2 37 30 0 17 -1 30 -2 30 -2 -1
-19 -14 -38 -30z"/>
<path d="M2713 523 c-14 -5 -18 -35 -6 -46 3 -4 14 -1 22 7 9 8 30 22 46 30
l30 16 -40 -1 c-22 0 -46 -3 -52 -6z"/>
</g>
</svg>
